<?xml version="1.0" encoding="UTF-8" standalone="no"?>
<svg
   width="63.079636"
   height="80.880997"
   version="1.1"
   id="svg1"
   sodipodi:docname="ivy-sprite.svg"
   inkscape:version="1.4 (e7c3feb100, 2024-10-09)"
   xmlns:inkscape="http://www.inkscape.org/namespaces/inkscape"
   xmlns:sodipodi="http://sodipodi.sourceforge.net/DTD/sodipodi-0.dtd"
   xmlns="http://www.w3.org/2000/svg"
   xmlns:svg="http://www.w3.org/2000/svg">
  <defs
     id="defs1" />
  <sodipodi:namedview
     id="namedview1"
     pagecolor="#ffffff"
     bordercolor="#000000"
     borderopacity="0.25"
     inkscape:showpageshadow="2"
     inkscape:pageopacity="0.0"
     inkscape:pagecheckerboard="0"
     inkscape:deskcolor="#d1d1d1"
     inkscape:zoom="2.854249"
     inkscape:cx="30.305695"
     inkscape:cy="85.311407"
     inkscape:window-width="1536"
     inkscape:window-height="792"
     inkscape:window-x="0"
     inkscape:window-y="0"
     inkscape:window-maximized="1"
     inkscape:current-layer="svg1" />
  <path
     d="m 31.539432,1.002 c -0.784,0 -1.393,0.75 -1.91,1.242 -1.327,1.266 -2.609,2.57 -3.738,4.018 -4.747,6.088 -7.718,13.424 -7.719,21.193 -3.748,-2.187 -8.7329995,-2.471 -12.9819995,-2.066 -0.971,0.092 -3.594,-0.097 -4.059,0.965 -0.33700004,0.772 0.12,2.035 0.277,2.82 0.4886574,2.478998 1.203996,4.907869 2.137,7.256 3.425,8.562 10.1319995,16.037 19.9749995,16.041 2.493,0.001 4.953,-0.531 7.064,-1.91 v 26.734 c 0,0.787 -0.27,2.586 0.955,2.586 1.225,0 0.955,-1.798 0.955,-2.586 V 50.56 c 2.597,1.697 5.752,2.136 8.785,1.773 2.194,-0.262 4.276,-0.707 6.301,-1.641 5.891,-2.718 9.618,-8.425 11.953,-14.262 0.94,-2.349 1.615,-4.782 2.137,-7.256 0.165,-0.779 0.612,-2.055 0.277,-2.82 -0.464,-1.062 -3.085,-0.874 -4.057,-0.967 -4.25,-0.404 -9.233,-0.121 -12.984,2.068 0,-7.769 -2.972,-15.105 -7.719,-21.195 -1.129,-1.448 -2.413,-2.752 -3.74,-4.018 C 32.931432,1.75 32.323432,1 31.539432,1 Z m 0,2.434 c 0.606,0 1.143,0.721 1.529,1.105 1.130467,1.1302677 2.175033,2.343301 3.125,3.629 3.028,4.07 5.304,8.751 6.268,13.748 0.356,1.843 0.537,3.665 0.537,5.539 0,0.757 -0.215,1.969 0.332,2.586 0.317,0.358 0.748,0.364 1.141,0.135 1.031,-0.6 1.754,-1.402 2.918,-1.826 4.175,-1.522 8.289,-0.907 12.604,-0.895 -0.099,2.167 -0.907,4.444 -1.592,6.49 -2.295,6.861 -6.625,13.601 -13.875,15.846 -2.874,0.89 -6.109,1.13 -8.975,0.129 -0.899,-0.314 -2.15,-0.739 -2.75,-1.523 -0.651,-0.852 -0.324,-2.735 -0.305,-3.756 0.008,-0.413 -10e-4,-0.838 0.305,-1.154 0.734,-0.757 2.186,-1.073 3.133,-1.494 0.744,-0.331 1.63,-0.97 2.482,-0.865 1.598,0.195 2.701,2.027 4.201,2.529 0.613,0.205 1.375,-0.193 1.111,-0.926 -0.228,-0.632 -0.979,-1.048 -1.494,-1.418 -0.623,-0.449 -1.228,-0.854 -1.717,-1.447 1.627,-0.553 3.492,-1.274 4.961,-2.17 0.641,-0.391 1.256,-1.407 0.182,-1.762 -0.603,-0.199 -1.375,0.297 -1.898,0.545 -1.291,0.613 -2.635,1.277 -4.01,1.67 0.009,-1.052 0.859,-3.704 -0.082,-4.434 -0.683,-0.529 -1.257,0.187 -1.418,0.809 -0.383,1.475 -0.535,3.25 -0.6,4.771 -1.79,0.511 -3.367,1.588 -5.156,2.1 v -8.594 c 0,-1 -0.324,-2.7 0.195,-3.588 0.651,-1.114 2.579,-1.699 3.613,-2.416 0.486,-0.337 1.117,-0.933 0.623,-1.549 -0.365,-0.453 -0.926,-0.312 -1.379,-0.1 -1.059,0.498 -1.993,1.237 -3.055,1.734 V 20.2 c -0.004,-0.667 0.014,-1.936 -0.955,-1.936 -0.969,0 -0.951,1.269 -0.955,1.936 v 6.684 c -1.062,-0.497 -1.996,-1.236 -3.055,-1.734 -1.382794,-0.650188 -2.295922,0.578026 -0.756,1.649 1.034,0.718 2.962,1.302 3.613,2.416 0.519,0.888 0.197,2.588 0.197,3.588 v 8.59 c -1.79,-0.511 -3.367,-1.588 -5.156,-2.1 -0.03,-1.484 -0.176,-3.345 -0.584,-4.771 -0.176,-0.617 -0.75,-1.337 -1.434,-0.807 -0.941,0.73 -0.091,3.38 -0.082,4.432 -1.447,-0.413 -2.83,-1.144 -4.201,-1.762 -0.529,-0.238 -1.286,-0.655 -1.863,-0.324 -0.809,0.464 -0.218,1.291 0.344,1.627 1.485,0.888 3.322,1.623 4.957,2.18 -0.488,0.591 -1.093,1.001 -1.719,1.445 -0.496,0.351 -1.226,0.704 -1.52,1.262 -0.337,0.639 0.264,1.337 0.947,1.189 1.641,-0.354 2.693,-2.427 4.391,-2.635 1.314,-0.161 3.212,1.167 4.393,1.684 0.444,0.194 1.043,0.39 1.332,0.805 0.428,0.613 0.195,1.841 0.195,2.553 0,0.705 0.153,1.631 -0.305,2.229 -0.6,0.784 -1.851,1.209 -2.75,1.523 -2.86,0.999 -6.109,0.758 -8.975,-0.129 -7.249,-2.244 -11.5789995,-8.983 -13.8749995,-15.846 -0.69,-2.063 -1.497,-4.301 -1.592,-6.49 v -0.002 c 4.243,-0.012 8.5149995,-0.719 12.6039995,0.881 1.172,0.458 1.995,1.47 3.086,1.93 0.337541,0.153294 0.735909,0.06199 0.973,-0.223 0.547,-0.616 0.332,-1.828 0.332,-2.586 0.0011,-1.859276 0.180914,-3.714141 0.537,-5.539 0.963,-4.994 3.241,-9.681 6.268,-13.748 0.951454,-1.2845116 1.995928,-2.4974383 3.125,-3.629 0.385,-0.384 0.921,-1.105 1.527,-1.105 z"
     fill="#fff"
     id="path1"
     style="fill:#38bdf8;fill-opacity:1;stroke:#38bdf8;stroke-width:1;stroke-dasharray:none;stroke-opacity:1"
     sodipodi:nodetypes="ccccccccccsssccccccccccccccccsccccccscccccccccccccccccscsccccscccccscccccccccccccccsccccccccccccccc" />
</svg>
